<mxfile host="app.diagrams.net" modified="2024-02-21T05:02:29.457Z" agent="Mozilla/5.0 (Windows NT 10.0; Win64; x64) AppleWebKit/537.36 (KHTML, like Gecko) Chrome/121.0.0.0 Safari/537.36" etag="G5cKwTdUZPew25IGuZ9U" version="23.1.5" type="device">
  <diagram name="Page-1" id="w2SW94ojlHonCYoVtcz2">
    <mxGraphModel dx="1322" dy="865" grid="1" gridSize="10" guides="1" tooltips="1" connect="1" arrows="1" fold="1" page="1" pageScale="1" pageWidth="827" pageHeight="1169" math="0" shadow="0">
      <root>
        <mxCell id="0" />
        <mxCell id="1" parent="0" />
        <mxCell id="jADqfz4LIB2jt7ftgjhi-1" value="" style="rounded=1;whiteSpace=wrap;html=1;fillColor=none;" vertex="1" parent="1">
          <mxGeometry x="146.5" y="270" width="696" height="450" as="geometry" />
        </mxCell>
        <mxCell id="jADqfz4LIB2jt7ftgjhi-2" value="&lt;font style=&quot;font-size: 24px;&quot;&gt;IT Support Helper&lt;/font&gt;" style="text;html=1;align=center;verticalAlign=middle;whiteSpace=wrap;rounded=0;" vertex="1" parent="1">
          <mxGeometry x="370" y="274.5" width="200" height="70" as="geometry" />
        </mxCell>
        <mxCell id="jADqfz4LIB2jt7ftgjhi-14" style="edgeStyle=orthogonalEdgeStyle;rounded=0;orthogonalLoop=1;jettySize=auto;html=1;entryX=0.5;entryY=1;entryDx=0;entryDy=0;" edge="1" parent="1" source="jADqfz4LIB2jt7ftgjhi-4" target="jADqfz4LIB2jt7ftgjhi-15">
          <mxGeometry relative="1" as="geometry" />
        </mxCell>
        <mxCell id="jADqfz4LIB2jt7ftgjhi-52" style="edgeStyle=orthogonalEdgeStyle;rounded=0;orthogonalLoop=1;jettySize=auto;html=1;entryX=0;entryY=0.5;entryDx=0;entryDy=0;" edge="1" parent="1" source="jADqfz4LIB2jt7ftgjhi-4" target="jADqfz4LIB2jt7ftgjhi-51">
          <mxGeometry relative="1" as="geometry" />
        </mxCell>
        <mxCell id="jADqfz4LIB2jt7ftgjhi-63" value="Login" style="edgeLabel;html=1;align=center;verticalAlign=middle;resizable=0;points=[];" vertex="1" connectable="0" parent="jADqfz4LIB2jt7ftgjhi-52">
          <mxGeometry x="-0.0875" y="1" relative="1" as="geometry">
            <mxPoint as="offset" />
          </mxGeometry>
        </mxCell>
        <mxCell id="jADqfz4LIB2jt7ftgjhi-4" value="" style="sketch=0;outlineConnect=0;fontColor=#232F3E;gradientColor=none;fillColor=#232F3D;strokeColor=none;dashed=0;verticalLabelPosition=bottom;verticalAlign=top;align=center;html=1;fontSize=12;fontStyle=0;aspect=fixed;pointerEvents=1;shape=mxgraph.aws4.user;" vertex="1" parent="1">
          <mxGeometry x="199" y="834.41" width="78" height="78" as="geometry" />
        </mxCell>
        <mxCell id="jADqfz4LIB2jt7ftgjhi-5" value="User" style="text;html=1;align=center;verticalAlign=middle;whiteSpace=wrap;rounded=0;" vertex="1" parent="1">
          <mxGeometry x="208" y="918" width="60" height="30" as="geometry" />
        </mxCell>
        <mxCell id="jADqfz4LIB2jt7ftgjhi-24" style="edgeStyle=orthogonalEdgeStyle;rounded=0;orthogonalLoop=1;jettySize=auto;html=1;exitX=0.25;exitY=0;exitDx=0;exitDy=0;entryX=1;entryY=0.5;entryDx=0;entryDy=0;" edge="1" parent="1" source="jADqfz4LIB2jt7ftgjhi-6" target="jADqfz4LIB2jt7ftgjhi-13">
          <mxGeometry relative="1" as="geometry" />
        </mxCell>
        <mxCell id="jADqfz4LIB2jt7ftgjhi-56" value="Doc search content" style="edgeLabel;html=1;align=center;verticalAlign=middle;resizable=0;points=[];" vertex="1" connectable="0" parent="jADqfz4LIB2jt7ftgjhi-24">
          <mxGeometry x="0.4267" y="-1" relative="1" as="geometry">
            <mxPoint as="offset" />
          </mxGeometry>
        </mxCell>
        <mxCell id="jADqfz4LIB2jt7ftgjhi-6" value="" style="shape=image;verticalLabelPosition=bottom;labelBackgroundColor=default;verticalAlign=top;aspect=fixed;imageAspect=0;image=data:image/png,iVBORw0KGgoAAAANSUhEUgAAAI0AAAA4CAYAAADAWXtjAAAAAXNSR0IArs4c6QAAAARnQU1BAACxjwv8YQUAAAAJcEhZcwAADsMAAA7DAcdvqGQAAAjHSURBVHhe7ZxbbFZVFseX+sYDARJ4gAKtRhCdAaoCrYBQJsMQXgShoAlJW7GKV9qizohGCjoWFC3zpONgSnUGbIvhwckYholAKkVTiILaoCEBpiUZiYQmkBpIynH/d8/6XN/pue32A2Nn/ZKds8/ea519+3ff+MINnoEUxYEb/aeipEZFozijolGcUdEozqhoFGdUNIozKhrFGRWN4oyKRnFGRaM4o6JRnMmpaD47fJjumDyF7p0zx09RhiI5EU1XVxc9uHKlCQ9Qz4891PnfTvpL/TY/Vxlq5EQ0c++ZbWaZz2jVqlX2feq0abStvl6FM0Rx/mlEY0MDTb7tNju7gKLiYurq7KS88ePpSPsRql67lt7cVk/NTU0mvYt2NTdRXl6etVWGBk6iWVP5CO3du9d/6+P1N7bS8tJSG99St5nefust+vxIO125csWKCaJShhZOoll633301fGvaNiwYfRS7QY7g0hRNDbsoBMnTlDdls1+Ctm9TlFRMS0rXZ5qxjlw4IAf68/8+fP9WDinT5+m/Px8/025ZkA0ackfP8GrKCv3br35Fu8Pv1/oXbhwwc8Jp7Oz03tgxQrrN6f4Hm/Z0vttWhSnTp2CgGODEYVXXl5ubSW1tbWZ/P379/upyrUgtWgw2Bj8bW/Wex//62Mbf3zNY35uH1GCaGpq8opnzrI+qyse8lP7k0Y0HILiMLNQJg8CUq4dTqLBrMHCeK+x0T4B0hYvWmRFUfnQaj/V844dO+Y98nClTZ9519322dLc7Of2R4qmoaHBT+0DeQiYZdgGwmFgz2nBWUjJLalEA1FEDfYzNeusGGTAbAQ6vunwbp6Y772xdau3a+fOQYlGIoUjZxsVy/Uh8Z4GR+tn160z4ZnMMZvBDfDulhazGS6iJUuX2rRx48bZOxrYTrl9CrUe+pRqjP/3//ve5ufiNFVWVubHiA4ePOjHSDfB14lY0bQdastc3O1q+qDf6QcCaG07ZPKarEjyCwrog5Zma8cXe2ONiMCsoln2eJ6LOxuckpiJEyf6sfTAH6c0+Z0k2McF+Lj4sa1rOYxrHQdcnj/jhPLbKbfbJeWuwkJzairz6l591ftw924/N5upd/zGe7Sy0sYPt7XZZxBetqIYyPLEdrynQWCwdHEavi1tOMTtgZAuy2J7hLj6wQ820o99w052sp7SNmpDz3XC5l++p/EFUeUhRPWFJFY0K0v7jsvL71/mzZ97r43v/6R/oy9fvuy1trZ6727f7qf0B0KCP/ZAUaDC3IiwQUE+H625oUySaIJ+HOf3IPJ7yMcAIbAvnmEDI8sJC/CTbZOnvrAA+6DQpGji/GEXRNrLdsm0uD8IECsabIAx0Dg1gUuXLnnd3d02npaLFy9653/4wcbxHdzX8AksiBQNKs+B04JBdmaSaBDQOUxQgFIAsh7Bjg/6yTrI8lBvzoMP4tweRn4HdQuz529JgjNLsO7SD++M7CPpA2DH3w2WFyRWNACnHQgnasmBAObOnm2Xp+PHj/upP9Pe3m79i2bOylz0rVhe6udmg4pzo6ICGoQOlp0BkkQjBcPgG/xXJvPD0oKE2fBgRfnJOsu6hc0IAPb8TWkjRRM2K8hvsxABpwUFw8j+j5ttEk9P2OxWVVeHnnqw2cVGGT+FMDMKPf7omn4nrHPnztHTVWtp2rSp1g588/XX9hmHaRiZBmcFU18yDbNx05m+ZTrkiYuJ+gZvDMN8GCMM+8RmEuzYsSMTj/KT5TU2NvoxIjNAfiwb2G/YsMHGozarRkB+7GdkOXy6RP2YuPpxu2T9giSKhk87OF5LcATH0RrH7QkTJtCYMWOsYD5s2Z0lnMWLF1N1TQ2VV1TQ2bNnaezYsVS7aaOfGw1ORWiADIMhyj+YLjsXHVdSUhIa2A5CYbEwLnVNsuV8PulIonwx+FI44MyZM/aJ9AozFmFtQuC2BNuURd+EE4/cwP79/fftky/8ent77QUe8nE6gm3wAo/3RtjPRC1zIO30GEbS8iSXBgnvK8wA2HfpkzbAh7+DkAaUB1suNwrZJygH8PIU52vEYW14KZL1SxuiSP0jrFGjRtFTTzxJL65/gczR285A+EnEd99+S1evXqVJkyfT2uqqrJ9KMLBFOu50cnG5dy2Rf6FYNrAcJgX8xcv7oti/0gBJtnJ2Cc4eAyWsDWEhilQ3wmDnzn/QPz/6iJ770x/p+fXrbRowJyoqqyinSZNute8QDHwqVz9s3xHHzyNycal3PZADg/0A3pMC4CfYuDF5+eV9RdiyI8nVjfe8efP8WF+Zsv5RIYpE0eDHVPZ5+QotWPA7Gj16tH1n7p4xg2pNJ80T6+uXX3xB/9m3jzbX1dk9Dm6U8cu+XwvYhAMMptzjSLD+S3FgtkEA8AsTjkyX9thjhM04snxs/gcDRJBUHtIKCgqSRe8vU7G8smlT1j9Mygs6M43Zy70gLzy/3touWrjQ7mXSgG+hSgi/1J4GwNZ0csYXewh8n/cuMk/WU9Zf+sGHy4Ev4kDWD+nSXpYh6wYGsqcBsn5cD9kuzkOI6i+Qbtfmgw0tB/DO23+1wiiaMdM7f/68TcMmGPcxNVXV3p1Tp9v8ra+9bvOSkI2Sg5EG2LMvM1DRANgjjf3DQlgd4ScHPBiQJ+uSZC8HnRmoaECa+qHf4rjJfLRvLk7B8OHDMwFs/9s7dPLkSbuvKSlZYJagPOro6KB9e/9tj9e9V3upp6eH1j33rP3X7yS6u7tp5MiRdhqdPn167LoaZMSIERlfBEZ+DzZhYErGmg8bBrZmcGwd8A32hQ3SjWCyymFgt2TJEmsn/aqqqqz9nj17suoRZo8yuQzkBYFNWJ0lsCksLLQ2sh/DygPcLtQvqd8H9R81Hj16lF7bvMVsgifRy39+xU9VhjqDEo3y/0nqexpFYVQ0ijMqGsUZFY3ijIpGcUZFozijolGcUdEozqhoFGdUNIozKhrFGRWN4oyKRnFGRaM4o6JRnFHRKM6oaBRHiH4C8oQ4hw5ntgYAAAAASUVORK5CYII=;imageBorder=default;" vertex="1" parent="1">
          <mxGeometry x="609" y="817.82" width="224.09" height="89" as="geometry" />
        </mxCell>
        <mxCell id="jADqfz4LIB2jt7ftgjhi-58" style="edgeStyle=orthogonalEdgeStyle;rounded=0;orthogonalLoop=1;jettySize=auto;html=1;exitX=0.5;exitY=0;exitDx=0;exitDy=0;entryX=0;entryY=0.5;entryDx=0;entryDy=0;" edge="1" parent="1" source="jADqfz4LIB2jt7ftgjhi-13" target="jADqfz4LIB2jt7ftgjhi-18">
          <mxGeometry relative="1" as="geometry">
            <Array as="points">
              <mxPoint x="340" y="630" />
              <mxPoint x="340" y="414" />
            </Array>
          </mxGeometry>
        </mxCell>
        <mxCell id="jADqfz4LIB2jt7ftgjhi-13" value="&lt;font style=&quot;font-size: 14px;&quot;&gt;Chat History&lt;/font&gt;" style="rounded=0;whiteSpace=wrap;html=1;" vertex="1" parent="1">
          <mxGeometry x="294" y="630" width="120" height="60" as="geometry" />
        </mxCell>
        <mxCell id="jADqfz4LIB2jt7ftgjhi-49" style="edgeStyle=orthogonalEdgeStyle;rounded=0;orthogonalLoop=1;jettySize=auto;html=1;entryX=0;entryY=0.5;entryDx=0;entryDy=0;" edge="1" parent="1" source="jADqfz4LIB2jt7ftgjhi-15" target="jADqfz4LIB2jt7ftgjhi-18">
          <mxGeometry relative="1" as="geometry" />
        </mxCell>
        <mxCell id="jADqfz4LIB2jt7ftgjhi-15" value="&lt;font style=&quot;font-size: 14px;&quot;&gt;Upload File&lt;/font&gt;" style="rounded=0;whiteSpace=wrap;html=1;" vertex="1" parent="1">
          <mxGeometry x="178" y="383.5" width="120" height="60" as="geometry" />
        </mxCell>
        <mxCell id="jADqfz4LIB2jt7ftgjhi-42" style="edgeStyle=orthogonalEdgeStyle;rounded=0;orthogonalLoop=1;jettySize=auto;html=1;exitX=0.5;exitY=1;exitDx=0;exitDy=0;entryX=0.75;entryY=0;entryDx=0;entryDy=0;startArrow=classic;startFill=1;" edge="1" parent="1" source="jADqfz4LIB2jt7ftgjhi-18" target="jADqfz4LIB2jt7ftgjhi-6">
          <mxGeometry relative="1" as="geometry">
            <Array as="points">
              <mxPoint x="495" y="560" />
              <mxPoint x="777" y="560" />
            </Array>
          </mxGeometry>
        </mxCell>
        <mxCell id="jADqfz4LIB2jt7ftgjhi-48" style="edgeStyle=orthogonalEdgeStyle;rounded=0;orthogonalLoop=1;jettySize=auto;html=1;exitX=1;exitY=0.5;exitDx=0;exitDy=0;entryX=0;entryY=0.5;entryDx=0;entryDy=0;" edge="1" parent="1" source="jADqfz4LIB2jt7ftgjhi-18" target="jADqfz4LIB2jt7ftgjhi-46">
          <mxGeometry relative="1" as="geometry" />
        </mxCell>
        <mxCell id="jADqfz4LIB2jt7ftgjhi-18" value="" style="shape=image;verticalLabelPosition=bottom;labelBackgroundColor=default;verticalAlign=top;aspect=fixed;imageAspect=0;image=data:image/png,iVBORw0KGgoAAAANSUhEUgAAAOUAAABDCAYAAABjjMLlAAAAAXNSR0IArs4c6QAAAARnQU1BAACxjwv8YQUAAAAJcEhZcwAADsMAAA7DAcdvqGQAAAnPSURBVHhe7Z3N7yZTFseLtpvu3iLssGCktZF4GRE2zSBEWkYYQ8If0DaYjFiYDfGSSHciZmVEs6C97GaGjgRjxpjFaBJ6gR1BmFnQwo76VNdXTt++t+rWUy/Pbb/zSSq/euqpui/nnO+5L/U0x33/3Q8/VI7jFMPx7V/HcQrBRek4heGidJzCcFE6TmG4KB2nMFyUjlMYLkrHKQwXpeMUhovScQrDRek4heGidJzCcFE6TmG4KB2nMFyUjlMYLkrHKQwXpeMURjH/yPmTzz+rXtz/9+b87Xffaf5ybd2cetLJ1SknntT8vWDb9uqCc85tv3GceVi7KBHgnr1/+UmIpYNAr7/iqmrXLbe1VxxnWtYmSkbBPzzywDEjxhAXpzMXaxElI+Oep55oPx3bMJ195pE97SfHGc/iorz5zl3H7OiYglETYbLudJyxLCrKXEHuvPzKJsBPrYP93/X9L77yt/abcnFhOlOxmChzp6yx6SDrTwT96Reft1fmB5Fpp5V6c5IJz7z+9L72k3Ms8+X//1e9+tY/qxuvvra9shyLiJKARlR9dAV1bhljoQ0P3XXPUa8+9MqmL7EwyvO8My3Y/7JbbmjO517Hf/HVl9XFN+1szi/a/qtq78O7m/OlWOTHA4ySOXQZGkeEQpkaJYVYPUxL2WlFdF2QPHJG1Rg8x1Sdo4R3tEug/jYzqfbV2Lr7/vKbb7RnVfXWgf9WBw6+335ahtlFicFzglTryC4evPOP7dn0hKM0AXL6jkuqS3//2+ZQoCBM7k3BVPeFus+r8PZ7B6q7H76/Of5Tn/+cYdaDfdVfZiAcXOcgbtbF7665rjr3rLObc+Jy+5m/bM6XYnZR7s589aERRkcMRDvH1DAUJEGhaSoi49DUmTbwfrKL3ES0EcEu2LLLPti7EWqdGNcxap6waVO1b/fj1bOPPraWpcjsosTAOSjwdaScdv627dWuW29vP02DNXyqbtqn6/zcro/cfm80QvtqDc7SBb/apQOJcZ0zhvPO3taeLcume++97772fHIYMfb/6x/tp2EQ1NdH1m9bN29pRratW7Z0ZttcCIgdF1/SnJOdD378YfXNt4eazyEX1gFz5mlnNIHS16+v6zJi7e+C6av6RJuoawiMKk++9HwzfX7ypX0/jdhbN28+amlw2DdvNnUihGY9V59rXYcNtvxic2PvFCpD9eEzfPP1oUNNOygPVLfKBu7785/ur27beUPTT+6hHdjsk7qcgx9/1Nz3Qe2PHb8+7B/qgGa2Ut9HebZufZdC7VU78GHMNiB7UK78MIXNcph195UgpyOrEE4pQwjAnN3QFJSPIJWZKQ/jsmZMlfvR/sNC5L6+evvaH8OWS9v6NpUsBAWjUApGIfuTQDti0dbYyM711E8Ju2Yz2FTfqR/YV7unwMgo28dgHa82cS9t0fOp9gJlsvdghUbdXT/pDG1j20p52oBUn6kfhtosl1mnrykj5ECHu57H6Dt3/KbTsSl4JtxlZfRjJKRcDBpOke3OcE6/UkEzBwRRKEgFjkDsiD5Gqq1cf+Hlvx7VXwTTZYPYd7YO7N7nNwIbQZMIw3vD9tq+Urf+tZHoSiDQZZsY1N9nM3yyKou8EpkLBERW7HOwhXslMAwn47FWZVNKI7sVvM3qOK/LwZYxjhmCDSj1j6Tz2t7njkguBEsK7kMAPGNnEASZLZ9zG5DcyzM8S71hMhCayoLK7oLE2DdToD7qpa+0X3UjMvnItpfv9cwQ26Toshkj86rMKkrrvFXIebUgYeaggAUEg+FkPMohO2u3mM+6X8bG0X3TVsvY/udCW4VNUlwnufTB/ZpuNc/UYginc8L2H9twr+qXvVLCFDkbZX1YvwDttZ9jtrfCCW0z1FdDbDaUWUXZ55w+ckckjILB+5B4JUjK51z1YFSEaT/LiVwLp4h9jO1/LrRTmV8CUb+YyqkdBF4sWGIbUrbtClj7LN9bEQjqVxsssukUpOpm+SH4zTRY2/AcMyFGT45wNBvSRitAYW02hllFGXPOEAiGXEMx/Yw5StiMLkECdbAhpYDjR/ChcXHgUEHC2P4PgbrI/LSVNR8bFbSZka1vFMB2IZTXFWRdto49Z6/1taePlF1T7eV+RmdsYn+oEMaW3o3mtC9Wl7XZmD4Wv6bEUDlgkFj2EsqiZMrQGRiwCeDaIWRYOR2hKrBLh7YTdDkiXJXccmOisaNYLrFRfRXwYU5SpX/YL+feWB+nYlZRDn1PFwNDkflzIHunMrgyWCqbUg+LfdtmgnzIlMbSt0kxJc2UzCQO+tisceopW7j2GoO1XZdAY2Kyz7Ju7xOckgwCGSPOMAlbuzCt5S9LnyX91cesooxNi1ZhiDBTiUC7fylRct1uBORkyy5WGRlWxf6UkYBjN5K+aE081Yhjp2cEeqpc7WBbaIeexZ9dv9ShXCUZ6hnzqx67WSgByi70h5kY9uMckabiY0lmX1NOlaVxZE5wpRKBsiVtInAtoSBx1KojpFgy89pRK5zC04+uUW0o1p+MZqFPupYbbKIJ7ouJF+wGDL4ZY0vbvjAWZRsOJQGEu25OaP/OBkFy88gAFxgPUeFMOYrAADY5+I4DgYXBgQP0HG3ifjIwTrfO6gqWXKYQJBm+75WQTSZKIswo+IwdmI5PKUjAdgpm7MQ5ddEWXU/Bs7ZN2Fp9TD1P/8ZA21QmtlFioC6OEO7Hf2NjYAyzb/QQIGGGWhWmoGQ+nCkxYlgtzmVIjBpzJtMUPSfjq20qdwpnjA0kUNB0HQo2+56Wa/QBm4QBPgXY7Y729QJQB22hzpz6mFrbpKW+xJ6fYj0c2ga7cFBniin2QsawyO5r7sv9EBzCVJMg59DoxnVExCHjYnCJTsJT4Ag5ReJTQHA/mwqlCHIoCIX1UCyAsV84XR8LopJgQhvznRVd+D3In7HngedT/RkKtkmJm2sx28TatCSL/Td6CHjEMBQMx4EAEVUzfaqFqV9jaBMAQYaZdmlo57rXJNgJCMY5IZkp0MM6mSbKF/wMrQ8lVsQwZ7sVQ6C2l8ii/zW7ZhSrxTMWOU/OLIESBLkE1ofNKFwnSYtdAuAnpqvOMBYVJUwlzJLYKIKE0H8acRAgSdLOVlLTRqebxUUJq05lSyQ2WvzcsdPTFBvRLlOxFlEC8/sx/0h53TACsIE199qtVEissXU8mzTsXvoIuTprE6WQOJn6lLRGjMEUjfdc/r/EO5KlNpc2CmsXpeM4R7LIe0rHcfJxUTpOYbgoHacwXJSOUxguSscpDBel4xSGi9JxCsNF6TiF4aJ0nMJwUTpOYbgoHacwXJSOUxguSscpDBel4xSGi9JxCsNF6TiF4aJ0nKKoqh8BDmdgGvRA2YUAAAAASUVORK5CYII=;imageBorder=default;" vertex="1" parent="1">
          <mxGeometry x="380" y="380" width="229" height="67" as="geometry" />
        </mxCell>
        <mxCell id="jADqfz4LIB2jt7ftgjhi-40" value="File upload to Pinecone project" style="text;html=1;align=center;verticalAlign=middle;whiteSpace=wrap;rounded=0;" vertex="1" parent="1">
          <mxGeometry x="619" y="520" width="110" height="30" as="geometry" />
        </mxCell>
        <mxCell id="jADqfz4LIB2jt7ftgjhi-47" style="edgeStyle=orthogonalEdgeStyle;rounded=0;orthogonalLoop=1;jettySize=auto;html=1;startArrow=classic;startFill=1;" edge="1" parent="1" source="jADqfz4LIB2jt7ftgjhi-46" target="jADqfz4LIB2jt7ftgjhi-20">
          <mxGeometry relative="1" as="geometry" />
        </mxCell>
        <mxCell id="jADqfz4LIB2jt7ftgjhi-46" value="&lt;font style=&quot;font-size: 14px;&quot;&gt;User &lt;br&gt;question about knowledge base&lt;/font&gt;" style="rounded=0;whiteSpace=wrap;html=1;" vertex="1" parent="1">
          <mxGeometry x="670" y="383.5" width="120" height="60" as="geometry" />
        </mxCell>
        <mxCell id="jADqfz4LIB2jt7ftgjhi-53" style="edgeStyle=orthogonalEdgeStyle;rounded=0;orthogonalLoop=1;jettySize=auto;html=1;" edge="1" parent="1" source="jADqfz4LIB2jt7ftgjhi-51">
          <mxGeometry relative="1" as="geometry">
            <mxPoint x="609" y="873" as="targetPoint" />
            <Array as="points">
              <mxPoint x="565" y="873" />
              <mxPoint x="609" y="873" />
            </Array>
          </mxGeometry>
        </mxCell>
        <mxCell id="jADqfz4LIB2jt7ftgjhi-54" style="edgeStyle=orthogonalEdgeStyle;rounded=0;orthogonalLoop=1;jettySize=auto;html=1;entryX=0.5;entryY=1;entryDx=0;entryDy=0;" edge="1" parent="1" source="jADqfz4LIB2jt7ftgjhi-51" target="jADqfz4LIB2jt7ftgjhi-13">
          <mxGeometry relative="1" as="geometry" />
        </mxCell>
        <mxCell id="jADqfz4LIB2jt7ftgjhi-55" value="&lt;font style=&quot;font-size: 12px;&quot;&gt;Thread&lt;/font&gt;" style="edgeLabel;html=1;align=center;verticalAlign=middle;resizable=0;points=[];" vertex="1" connectable="0" parent="jADqfz4LIB2jt7ftgjhi-54">
          <mxGeometry x="-0.4498" relative="1" as="geometry">
            <mxPoint as="offset" />
          </mxGeometry>
        </mxCell>
        <mxCell id="jADqfz4LIB2jt7ftgjhi-51" value="" style="shape=image;verticalLabelPosition=bottom;labelBackgroundColor=default;verticalAlign=top;aspect=fixed;imageAspect=0;image=data:image/png,iVBORw0KGgoAAAANSUhEUgAAAK0AAABECAYAAADz5LUJAAAAAXNSR0IArs4c6QAAAARnQU1BAACxjwv8YQUAAAAJcEhZcwAADsMAAA7DAcdvqGQAAAnNSURBVHhe7Zvdb1xHGYffXTv22l7bwmkKKHjjIDXiAhSFhNJ4XQGtuPWSCBU7XMAfkHCBQlLuuGqa1LmIlYv8A2ALoSb2RVJKWiGla0Bq4qpY/eAm1qaK2joF/LlpbO/y/uacsWfHZ9dr7+7ZHfE+0XhmzsfMOufZ97xndh3p6enJkyA4RNSvBcEZRFrBOURawTlEWsE5RFrBOURawTlEWsE5RFrBOURawTlEWsE5RFrBOURawTlEWsE56votr0S+i156cogG1vdTby6utqWbH9JI613KRBZUXxBs6iZt/9rXaWIlFRjqZ6MLNLbnYyWvINjULT24AWEjfqegzlMfR+Dh1UMciTvVZkEwqYu0V7I/pCbKsZ9cttQc+Lnuy3XSaPYHOFwQCqiLtKdWn+GfyEpKl95cB9eCUEjo0g49eYazgGBJveJHW64PcLRNcBEEk9Cl7V//2jbSgs06E13024LgEfrqwbuLP6WDZUbPWRb2aOef/F5tSCaTlEgk/B5ROp2mTCbj9wSb4eFhv+UxNjbmt8IjdGnnFn7B4R0BHtNGuOI6gmUDs+/1BtvfoKnmT7lVOyYnJ5W4msHBQSWuzblz5+jBgwdK6KD9/w/gzT09Pe33vDc4/r/CJtT0YDSbpChsxCoB5DRWCwr7ebrT9FAJm1z7Kk6tKxD7/PnzdPXqVVVMyYXwCU3aRC5Ow6vf5BZLGeESUOe4vs8pwWDHG3Si403ehuWxJKcUJ9T59cKUFNGmmLSIxrqYKYdQXUKTdjR73Iuyaj0WjRxXLCqt0/3IAr3Seo9S7X+mY52vU7r5MyXp9eUfc/7bzqWDri+9SGcff4f6GyDyFgPRWBeJxrWjJtLaURH9b6g1V2Ut//Qi6qux92hf9+9Z1Bt0OTbD6cBnar9mYO1p/umd05eP02+/PEwTyy9y5E3xm+A5GnqCyF17Tp8+7bdI5bSXLl3ye0I9qJq0EBMizc0P0z2W6tH8Kbq7OMjR8duUiS7RyY7bLOqCiqyvtr7Hok7QSOs//bO3gnPOtE0pwc21W7xgRN6fs7BX1Xyn6NccgWuZPuAJee/evaocOXLE31qIpAPhUZXVg36OiIiAUTz2W2DwC7H36XLrjB9x2zmifu7tLIMbyy/Q82WkBLPRZXqt9X0ab5n1t5RHuasHxdDnokZaoLl48eKWcYqNC+F7e3sLXgdWKootJyFnBvZqhjkO2thebAx9rK4xFii1OoJjG2H1oCrSzv33Z56weuVKY/QH429zrlq+rJr+1X00yW8I7wMJPaBde8xydD4R/ytH6WV/y/aUI22xY7AN+8oBMgRFaQhoym6iBTLTk6A5sR/HTUxMKLFMIK15PvYPDQ0VnRPoeVFM6RtF2orTg9HssxTFOqtaAWBQ6wKh/PaVlWe9/Tvkk6YVykc4PYCfaiy73mwj7x3Nfo87bgD5SskDSbCYb4oSBMTHUpwtrI2WrtScQM9rf5DQKFQsbXL1KXbTWGdV9dZygNOC/rV9/lnlg6iJ1QRv7KCC8Tfr3vU2/8xwQCRCxEF0MkHfLPr2q4FoZvQGOA5phX1Lh0T6WIxjR2xzv405FsS2wZw6qrpCxdImWMbNiMfFiK5mP8oluQtpQbppjn9iHPSCai5+rV5PSOBC49YblFJghQFy6WLeRiGZHe2wH8fhPIxp3tKBltJ8I9hAePOB0cyrETVtsfWcqHXbBSqWVuWpZuTDk36RfnKdo/IuSDd9zqOwlGo8u8bYkNarM5Elbjc2tjw6WpcCopcCgppLcZDa7Ntz6jzYRSqW9p0tD1cQyET387u+dX/SlKV39vjRdksBm3VaHdfY2AKhj1u3ziN1jmqynWDj4+N+Kxh7TleFBRVL+8eWjPo2lop0qkAg3Tb7Xl479KSX2zsDee1Iywfc2hyrsPYK1oBHYh9xu7Gxoyb6kBWiotipAwSz89ydYs8ZlF64QsXSZqIr9FrsQ9YFAgHUwQXLVmcff4vb5dPPD3rJtac4gj6iV2IfqJG88cwayuYpFecHIn49jY4tTCkhcds38+HdsF1qocF6rQtULC0Yb3lAx7reVFLlOM9Un2KZead+wud+H6cIZx8fUudtB46bWDpOV5YPqwesy7GPabDjDt3hlCSXx9skR7ORRdU/2vUXmmp+5J8ZPraIpQQIklY/EOmHMLTxQFWNj4wxnz2nnS6AoG2lqJfkVZEWIMJBqqPdt+l0+z260PYRyzSnvrnlrSTgKI62XA9zitC/uledZwM5Ieu78y/QyxyV8Re7B/PtdH3xOCX5nKk9X9BP4lM8z1v03a7bqkZ/txHWvpjVYmBgwG9txc4nkRLgdeg0wH4wKzdSlsJecsOc5rgQdrv121r9X+2UqkmrgTyIvCOxf3lydb1FFzh9QGT0oi6+3ZXzHPaBwL9hUW8sPUd3539EL2cPqW93RTaiNGJ3jlOEL/wzvHmqkQrYFwIXUz8Q7QRbREig12J1W0sCgWwpseiPYzAvjtcPZPgAAvuwrRLsJTTMiU/QMDbmCPpkD5HUntd+3fj/0r9jWIT2lwuIoK8vfZ8FjNCx7rfVtuRqD11ZOUwHOJJuvHvwakyjuY9oner4O0fZf/sbq4cWJgjcngEuqHlRcOu2JTUvYDHM80rNG4Q9J87FGBqkF9tFQv2GLAVyaDvimmPjjRQUkXF3sN8YtaLqkbYYiIon4/+gk51/U/3rLPAkR9aDuRhFdc6LmiPqRg7s98c4ctdCWICLgQtVKRhnJxcNx0MGW/5agvy41O+KN8Z2S2fYH+ZrDqKpra3td3675sxHVrmscTrQw/kq/pR8e/BY98v4tDqvVuAi4JY9Pz9P3d3dNDMzs3ELxzb9LShsR7l165baboNtuKgYY2FhQUVCyIntN2/e3BhXg+2IUHpunKP3o4/jsT+VShWcBzCH+Zr0ay0F9uM4FLyuiPrbPKJr167RmTNn1Dg4xvwdML/eDvQY2IZjANr69wuD0P+wEdydf576OF3w8oDS09/nCH2s+47fE4QQ0wOTRE5/MhYkrN7m1bVKCwR3CV1aCKu+G4ucVeWvdg1ZvRorBlNN/+G+IGwSurSZaFbJaH4zq1iNf1N7RFqhkLqkB+lmFlGtEKD40TWg/kPLQyW5IJjURdpfdXxIOfXXCCwnnsUC6hzXl9vu43BBKKAu0iJ6puLTNBtZ9iNrYcH2VPyeRFkhkLoseWkSuRi99OXTNLD2FUqudrOkj2ms9VMaaWuMz7iFxqSu0grCbqhLeiAIlSDSCs4h0grOIdIKziHSCs4h0grOIdIKziHSCs4h0grOIdIKziHSCs4h0grOIdIKziHSCs4h0grOEendv1++Tys4BNH/ANXff2SvhH72AAAAAElFTkSuQmCC;" vertex="1" parent="1">
          <mxGeometry x="351" y="839.9999999999999" width="170" height="66.82" as="geometry" />
        </mxCell>
        <mxCell id="jADqfz4LIB2jt7ftgjhi-59" value="Return doc search content" style="text;html=1;align=center;verticalAlign=middle;whiteSpace=wrap;rounded=0;" vertex="1" parent="1">
          <mxGeometry x="630" y="570" width="88" height="30" as="geometry" />
        </mxCell>
        <mxCell id="jADqfz4LIB2jt7ftgjhi-60" value="" style="shape=image;verticalLabelPosition=bottom;labelBackgroundColor=default;verticalAlign=top;aspect=fixed;imageAspect=0;image=data:image/png,iVBORw0KGgoAAAANSUhEUgAAAIkAAAA7CAYAAABPJqm3AAAAAXNSR0IArs4c6QAAAARnQU1BAACxjwv8YQUAAAAJcEhZcwAADsMAAA7DAcdvqGQAAAiNSURBVHhe7Zp7bFzFFca/612v36/YJiTGm6ZBEEiaFlBM7dBHCKogaY0TRF5qoFX/qRJchEJCkAuJ2oS2MY0EJlF4SCARFDtFbYJ4ifAUiRNqjKgap0JEasAQtbGNvfFr17vr7ZzZO/Zkvbtjr3fpEp3f6urOzs49cz3zzTlnrq/1YXt7CAwTBysksMsME5UM+8wwMWGRMEZYJIwRFgljhEXCGGGRMEZYJIwRFgljhEXCGGGRMEZYJIwRFgljhEXCGGGRMEZYJIwRFgljhEXCGEnpm2kejwf+A+1w/qUDjs5+BDGKwOoFKNixHFlZWXYrJt1JmUj6+/sxtPMo8vecRJ6VCVAvFjASCqJvcxVm7KyF0+kMN2bSmpSFG5/PB9eeY8ijLkKjoiYozy5Ryj10GsPDw7Idk/6kTCSuF0+hEOQpyIWQSMbPrs4+BN47I8rMN4GUiIQimPf9T+EgYUgvIg7tHBSfjDkzZFsmOl9+fn7s+H+TkpxkaGgI/qIHUAQ9ObWTEnHuqZmF/Dfqk5q80mC2HT+Fc51d+LLzPBbXLMDiJQtR4b7MbjHOL25/WLYlOrr/Ks/JRN1L3bqb7Zqp85Prfy3t0P2/8dF+u3bcNtXT3/d1kHSRjI6OonvD0yhpOY1MzVGRHxHSwWD1FQg0b4CvuQ0l3UEU7qyDw+EIN0oAGrR9jS04fPAdu2ac8EAuwMYtay4SSypFQnbJPrFp6xpsFEcixBKJuvfIekL9TckWT1LCTTAoNrdCHETvy+3IavmHEIiFgAgrF+BDV6ULQw/+EL62+5D76ib4/nwUsx94E67Gt9Fz19O48OrH8Hq9CAQC0sZkoUGkwYwmEIJ+p99+WfewLF9KRP49SpxKoMlkWiKhsNK9rQW9DS+iZ8OT6N33JuAugb/GDQ+8+GpzNRyeRsw48wjyf78SpdfNQ0FBAQrmXi6CTlDsfBwoazkFZ+1T8F6zA313P4P/Pv6afL4yGRrqn7BLYa/x3JHfSc9AK4zKakXRgJK3+TqgPqnv6XiReOxqukcekV4klYsg4XAzMDAA/4onUHC8U+xhSGsiWRVBJbBtGbx3fBfWF70oWXEDMjIm6tDv98OzrBGlredklqLjFzaG3GJf9M+HkJeXZ9dO5PDBt8dEoiYmEho45UV09xwZbsgW5TIEhadY7prsHGkOey3Ke+rWLo3aVtmeXXmZ7FfZn11ZLtvrdSp/isxf4uUk58Q1BNmi79RfW2uH9JoEiUgxnbxIkbBIzq/fi/KWjgmTPCyCzODffoWy2hvtmuh4XmmHq/ZJ5MhtMjGe2FLg6lp9Lcpf2BRVZERDfdNFgzKVwdBFQgOtyopoXkDvLxJ9IsmWcvnKjn6tEpWpz8nmJPpiiQa1obbTIeFwk33iLCxLTKw6aJLFOccSG99Hjxrzi6wrZ8Fr+UVJSMIiWdD14XOGsJN98jOMjIxQ06i0He+wS+MDnwi0KmmC6tYttWuEl7K9hYImRk0yDbhqrwafJjMelDjr4ojW597dLROEMxnILi0SXQhkWx3JIPGcpLJYzKeYVHXQZNtlR2ePTGbj4fh2OYI1c0Up4np1JvtxIFeeDDZuWS1X8K6m+rFBVS5coZdpZar2FJomA01ghbvc/ha9T0IX/mQh2+RF9Xsh2+rQxZMoCYvEWz1HrHnyIGJCpSexJ1gc2Z198L0Vf1VkZmZidPMtYu9DHsf2RPYxKj7e77vhctFDfDMqRkeDJlwd0dDDFOUMCtWe3LlCj/XTQfd8t4u8Jt1JWCS5d/8AniUVCITofzLh/8soL5AdsuB95EjMkCOfpRw5AcdNV+M/91YLoYiwQjbEjscf8qOvMhf52++ImY8QVdrKiRWTaaIptqvDRLRVp9ep5FaRyMr/JpKwSPKvnQO8dC96HluJr2qugMfyyodlIZFXkNH8E/9G3/7Xw41tKAQNnP4MXdueR+aqvQjVH0B+wyoMNq1B19pF6N6yFJ6ty5Dzrz/F3dkQtALVBCox6GGB6nTx6PF/Kuhh7e+aKMi+8japYKrhtEJrn0huE4+ERUIUFxdjZv3PUPjOQ8g6vRv+l+rRff9SDIV80qMM+IblKwM9H3+Ks/c9hd4fb0do4YMoffQtFIUccDafhNV6BjM2Lkfpgd+gZNd6lP1xA3JycuweYkMCefbw+LaXJowSTBLLgrJVF4mG2tJ2dSrQlpKga/Wkk+zSbiXSM+lhKVF0EaocJix22h3Ft6/nJHt3H5L3uk8kw8kQ8rREoqD3QrKvrkDRisVyoocfX4fhpvVwVF+Fodv+gOwbtmPOY8dQ1vo5CsSW10nvlYhcxL/lVpT8tEraoNAy1cfzNIGUSOoxPnJQqA3lEnqbWOirl3YzNMiEvnsg+/rWW7Gv8ZBdmhrKLqEmlqAdkYL6O9z8rv0tOuqZDEF2aMHQjilevjZZHDsEdjkp0GTnVl2FjEVuWHftR3nrWbiEFi2Z1I4np/1CJrlHfysT2OlQWJQnQwnlKLSaCovzMP87c7Fs+Y1juwd9IggaOKpT7RTSlvA4/RcG7d+qZDuqv/m2Ksxf+C1pX9muummhcPPlso6uo2vkpIhFoF9P9HsGx+6NBEs2FbH6lHmXskX92/bp9yphQxe+usewXUu2WWlv09U9JErK3kzre/kDZNfuQTYmegfq8Pya72Hmwa3hCiatSUq4icaoyElivU8SEJ+8Hy2S7Zj0J2Uicc6dKQKK2NZGPE2ls0fsgkaq58l2TPqTMpHkzndjYPOtGAkFhDbs5yjiPBAagX/Pz+GaN8tuyaQ7KctJCHpHZGD7C3C2fgLHsU8QdJcisHYJXA13orCw0G7FpDspFQlzaZCycMNcOrBIGCMsEsYIi4QxwiJhjLBIGCMsEsYIi4QxwiJhjLBIGCMsEsYIi4QxwiJhjLBIGCMsEsYA8D9n6wqPki0vqgAAAABJRU5ErkJggg==;imageBorder=default;" vertex="1" parent="1">
          <mxGeometry x="653" y="280" width="137" height="59" as="geometry" />
        </mxCell>
        <mxCell id="jADqfz4LIB2jt7ftgjhi-61" value="" style="group" vertex="1" connectable="0" parent="1">
          <mxGeometry x="920" y="280" width="200" height="198" as="geometry" />
        </mxCell>
        <mxCell id="jADqfz4LIB2jt7ftgjhi-20" value="" style="shape=image;html=1;verticalAlign=top;verticalLabelPosition=bottom;labelBackgroundColor=#ffffff;imageAspect=0;aspect=fixed;image=https://cdn0.iconfinder.com/data/icons/phosphor-duotone-vol-3/256/robot-duotone-128.png;imageBorder=default;" vertex="1" parent="jADqfz4LIB2jt7ftgjhi-61">
          <mxGeometry x="36" y="70" width="128" height="128" as="geometry" />
        </mxCell>
        <mxCell id="jADqfz4LIB2jt7ftgjhi-21" value="&lt;font style=&quot;font-size: 24px;&quot;&gt;OpenAI LLM Model&lt;/font&gt;" style="text;html=1;align=center;verticalAlign=middle;whiteSpace=wrap;rounded=0;" vertex="1" parent="jADqfz4LIB2jt7ftgjhi-61">
          <mxGeometry width="200" height="70" as="geometry" />
        </mxCell>
      </root>
    </mxGraphModel>
  </diagram>
</mxfile>
